<?xml version="1.0" encoding="UTF-8" standalone="no"?>
<!DOCTYPE svg PUBLIC "-//W3C//DTD SVG 1.1//EN" "http://www.w3.org/Graphics/SVG/1.1/DTD/svg11.dtd">
<svg width="100%" height="100%" viewBox="0 0 1200 630" version="1.1" xmlns="http://www.w3.org/2000/svg" xmlns:xlink="http://www.w3.org/1999/xlink" xml:space="preserve" xmlns:serif="http://www.serif.com/" style="fill-rule:evenodd;clip-rule:evenodd;stroke-linejoin:round;stroke-miterlimit:2;">
    <g transform="matrix(1,0,0,1,-5.05165,-2.7951)">
        <g transform="matrix(58.3333,0,0,58.3333,436.993,602.535)">
            <path d="M0.071,-0.714L0.203,-0.714L0.529,-0.188L0.531,-0.188L0.531,-0.714L0.65,-0.714L0.65,-0L0.518,-0L0.193,-0.525L0.19,-0.525L0.19,-0L0.071,-0L0.071,-0.714Z" style="fill-rule:nonzero;"/>
        </g>
        <g transform="matrix(58.3333,0,0,58.3333,479.11,602.535)">
            <path d="M0.068,-0.714L0.193,-0.714L0.193,-0.298C0.193,-0.274 0.194,-0.25 0.197,-0.225C0.199,-0.2 0.206,-0.178 0.217,-0.159C0.228,-0.139 0.244,-0.123 0.267,-0.11C0.289,-0.097 0.32,-0.091 0.361,-0.091C0.402,-0.091 0.433,-0.097 0.456,-0.11C0.478,-0.123 0.495,-0.139 0.506,-0.159C0.517,-0.178 0.523,-0.2 0.526,-0.225C0.528,-0.25 0.529,-0.274 0.529,-0.298L0.529,-0.714L0.654,-0.714L0.654,-0.257C0.654,-0.211 0.647,-0.171 0.633,-0.137C0.619,-0.103 0.599,-0.075 0.574,-0.052C0.548,-0.029 0.517,-0.011 0.481,-0C0.445,0.011 0.405,0.017 0.361,0.017C0.317,0.017 0.277,0.011 0.241,-0C0.205,-0.011 0.174,-0.029 0.149,-0.052C0.123,-0.075 0.103,-0.103 0.089,-0.137C0.075,-0.171 0.068,-0.211 0.068,-0.257L0.068,-0.714Z" style="fill-rule:nonzero;"/>
        </g>
        <g transform="matrix(58.3333,0,0,58.3333,521.227,602.535)">
            <path d="M0.38,-0.629C0.342,-0.629 0.309,-0.621 0.282,-0.606C0.254,-0.591 0.231,-0.57 0.214,-0.545C0.197,-0.519 0.184,-0.49 0.176,-0.457C0.167,-0.424 0.163,-0.391 0.163,-0.357C0.163,-0.323 0.167,-0.29 0.176,-0.257C0.184,-0.224 0.197,-0.195 0.214,-0.17C0.231,-0.144 0.254,-0.123 0.282,-0.108C0.309,-0.093 0.342,-0.085 0.38,-0.085C0.418,-0.085 0.451,-0.093 0.479,-0.108C0.506,-0.123 0.529,-0.144 0.546,-0.17C0.563,-0.195 0.576,-0.224 0.585,-0.257C0.593,-0.29 0.597,-0.323 0.597,-0.357C0.597,-0.391 0.593,-0.424 0.585,-0.457C0.576,-0.49 0.563,-0.519 0.546,-0.545C0.529,-0.57 0.506,-0.591 0.479,-0.606C0.451,-0.621 0.418,-0.629 0.38,-0.629ZM0.38,-0.731C0.433,-0.731 0.481,-0.721 0.524,-0.701C0.566,-0.681 0.602,-0.654 0.631,-0.62C0.66,-0.586 0.683,-0.546 0.699,-0.501C0.714,-0.456 0.722,-0.408 0.722,-0.357C0.722,-0.306 0.714,-0.257 0.699,-0.212C0.683,-0.167 0.66,-0.127 0.631,-0.093C0.602,-0.059 0.566,-0.032 0.524,-0.013C0.481,0.007 0.433,0.017 0.38,0.017C0.327,0.017 0.279,0.007 0.237,-0.013C0.194,-0.032 0.158,-0.059 0.129,-0.093C0.1,-0.127 0.077,-0.167 0.062,-0.212C0.046,-0.257 0.038,-0.306 0.038,-0.357C0.038,-0.408 0.046,-0.456 0.062,-0.501C0.077,-0.546 0.1,-0.586 0.129,-0.62C0.158,-0.654 0.194,-0.681 0.237,-0.701C0.279,-0.721 0.327,-0.731 0.38,-0.731Z" style="fill-rule:nonzero;"/>
        </g>
        <g transform="matrix(58.3333,0,0,58.3333,565.56,602.535)">
            <path d="M-0.005,-0.714L0.125,-0.714L0.304,-0.149L0.306,-0.149L0.489,-0.714L0.616,-0.714L0.372,-0L0.233,-0L-0.005,-0.714Z" style="fill-rule:nonzero;"/>
        </g>
        <g transform="matrix(58.3333,0,0,58.3333,601.202,602.535)">
            <path d="M0.38,-0.629C0.342,-0.629 0.309,-0.621 0.282,-0.606C0.254,-0.591 0.231,-0.57 0.214,-0.545C0.197,-0.519 0.184,-0.49 0.176,-0.457C0.167,-0.424 0.163,-0.391 0.163,-0.357C0.163,-0.323 0.167,-0.29 0.176,-0.257C0.184,-0.224 0.197,-0.195 0.214,-0.17C0.231,-0.144 0.254,-0.123 0.282,-0.108C0.309,-0.093 0.342,-0.085 0.38,-0.085C0.418,-0.085 0.451,-0.093 0.479,-0.108C0.506,-0.123 0.529,-0.144 0.546,-0.17C0.563,-0.195 0.576,-0.224 0.585,-0.257C0.593,-0.29 0.597,-0.323 0.597,-0.357C0.597,-0.391 0.593,-0.424 0.585,-0.457C0.576,-0.49 0.563,-0.519 0.546,-0.545C0.529,-0.57 0.506,-0.591 0.479,-0.606C0.451,-0.621 0.418,-0.629 0.38,-0.629ZM0.38,-0.731C0.433,-0.731 0.481,-0.721 0.524,-0.701C0.566,-0.681 0.602,-0.654 0.631,-0.62C0.66,-0.586 0.683,-0.546 0.699,-0.501C0.714,-0.456 0.722,-0.408 0.722,-0.357C0.722,-0.306 0.714,-0.257 0.699,-0.212C0.683,-0.167 0.66,-0.127 0.631,-0.093C0.602,-0.059 0.566,-0.032 0.524,-0.013C0.481,0.007 0.433,0.017 0.38,0.017C0.327,0.017 0.279,0.007 0.237,-0.013C0.194,-0.032 0.158,-0.059 0.129,-0.093C0.1,-0.127 0.077,-0.167 0.062,-0.212C0.046,-0.257 0.038,-0.306 0.038,-0.357C0.038,-0.408 0.046,-0.456 0.062,-0.501C0.077,-0.546 0.1,-0.586 0.129,-0.62C0.158,-0.654 0.194,-0.681 0.237,-0.701C0.279,-0.721 0.327,-0.731 0.38,-0.731Z" style="fill-rule:nonzero;"/>
        </g>
        <g transform="matrix(58.3333,0,0,58.3333,645.535,602.535)">
            <path d="M0.008,-0.714L0.586,-0.714L0.586,-0.606L0.359,-0.606L0.359,-0L0.234,-0L0.234,-0.606L0.008,-0.606L0.008,-0.714Z" style="fill-rule:nonzero;"/>
        </g>
        <g transform="matrix(58.3333,0,0,58.3333,674.76,602.535)">
            <path d="M0.267,-0.714L0.4,-0.714L0.675,-0L0.541,-0L0.474,-0.189L0.189,-0.189L0.122,-0L-0.007,-0L0.267,-0.714ZM0.223,-0.284L0.441,-0.284L0.334,-0.591L0.331,-0.591L0.223,-0.284Z" style="fill-rule:nonzero;"/>
        </g>
        <g transform="matrix(58.3333,0,0,58.3333,713.668,602.535)">
            <path d="M0.076,-0.714L0.201,-0.714L0.201,-0.389L0.519,-0.714L0.673,-0.714L0.388,-0.429L0.693,-0L0.537,-0L0.303,-0.341L0.201,-0.24L0.201,-0L0.076,-0L0.076,-0.714Z" style="fill-rule:nonzero;"/>
        </g>
        <g transform="matrix(58.3333,0,0,58.3333,753.627,602.535)">
            <path d="M0.267,-0.714L0.4,-0.714L0.675,-0L0.541,-0L0.474,-0.189L0.189,-0.189L0.122,-0L-0.007,-0L0.267,-0.714ZM0.223,-0.284L0.441,-0.284L0.334,-0.591L0.331,-0.591L0.223,-0.284Z" style="fill-rule:nonzero;"/>
        </g>
    </g>
    <g transform="matrix(2.60886,0,0,1.08776,0.000228204,64.6319)">
        <path d="M450.887,246.417L450.357,258.488L449.548,270.552L446.286,318.826C445.155,334.912 444.198,351.02 443.214,367.124L442.566,377.717C442.814,370.651 443.059,363.588 443.319,356.524L443.773,343.738L444.139,330.952L444.873,305.376L446.336,254.23L446.411,251.573C448.177,242.831 450.061,234.054 451.772,225.181C451.683,228.237 451.546,231.291 451.418,234.345L450.887,246.417ZM436.524,457.379C434.917,457.181 433.279,456.601 431.719,455.822C429.783,454.855 427.919,453.651 426.098,452.369C422.452,449.785 419.029,446.83 415.333,444.053C414.41,443.356 413.464,442.671 412.459,442.025L411.707,441.54C411.371,441.336 411.186,441.242 410.919,441.089L409.434,440.251L403.49,436.902C401.49,435.809 399.368,434.852 397.309,433.821C397.184,433.761 397.061,433.699 396.936,433.638L401.608,433.313L404.509,433.113C405.417,433.082 406.413,433.102 407.401,433.097C409.396,433.082 411.413,433.087 413.59,432.605C413.865,432.539 414.138,432.474 414.427,432.366L414.854,432.217C415.024,432.141 415.201,432.053 415.371,431.962C415.773,431.759 415.899,431.633 416.111,431.486C416.433,431.234 416.367,431.235 416.514,431.098L416.801,430.78C417.63,429.961 418.163,428.991 418.721,428.039C419.665,426.08 420.208,424.048 420.584,422.025C420.877,420.288 421.036,418.561 421.132,416.835C421.35,416.828 421.567,416.816 421.784,416.807C427.381,417.268 433.026,417.39 438.651,416.985L436.524,457.379ZM372.159,430.533C370.208,430.423 368.259,430.289 366.313,430.071L360.47,429.497L354.634,428.805C350.744,428.367 346.853,427.804 342.963,427.307L337.124,426.509L334.175,426.11L331.25,425.757L319.547,424.303C315.641,423.839 311.758,423.27 307.834,422.894L296.059,421.734C292.133,421.359 288.208,420.932 284.278,420.603L272.493,419.747L260.706,418.891L248.91,418.251C241.043,417.822 233.178,417.374 225.305,417.233C193.815,416.522 162.342,416.77 130.891,417.147L83.731,417.832L47.467,417.969C47.403,417.288 47.351,416.608 47.292,415.927L76.247,416.677L87.772,416.976C91.611,417.047 95.451,416.983 99.292,416.993L122.332,416.95L145.372,416.908C149.207,416.956 153.083,416.736 156.908,416.647L168.426,416.286L214.507,414.948C218.346,414.814 222.191,414.78 226.025,414.562L237.528,413.928L260.532,412.661C267.245,412.277 273.957,411.919 280.667,411.555L289.09,411.673C293.18,411.692 297.27,411.931 301.36,412.048L308.602,412.308C309.458,412.484 310.317,412.654 311.171,412.837C320.031,414.651 328.973,416.62 337.773,418.657C346.614,420.665 355.333,423.045 364.008,425.55C368.293,426.942 372.636,428.195 376.853,429.775C377.958,430.175 379.067,430.562 380.175,430.955L378.01,430.898L372.159,430.533ZM36.507,415.649L44.821,415.862C44.875,416.567 44.918,417.273 44.977,417.978L37.41,418.006C37.1,417.223 36.793,416.441 36.507,415.649ZM29.581,401.122L29.871,402.266L18.773,403.031C18.654,402.571 18.534,402.109 18.427,401.646L29.581,401.122ZM16.018,380.127C15.694,372.038 15.794,363.919 15.945,355.807C16.146,347.69 16.521,339.573 16.887,331.447L17.419,319.236L17.609,313.093L17.777,307.004L17.959,300.704L18.239,303.537C18.716,307.824 19.117,312.139 19.49,316.461L21.621,342.465C22.383,351.143 23.204,359.82 24.247,368.486C25.298,377.151 26.521,385.806 28.166,394.404L28.95,398.156C28.039,398.226 27.125,398.291 26.213,398.36C23.432,398.567 20.648,398.778 17.868,398.998C16.694,392.853 16.301,386.454 16.018,380.127ZM12.87,186.143L11.398,160.091C10.938,151.407 10.348,142.724 9.799,134.04L8.133,107.989C7.868,103.65 7.577,99.299 7.216,94.967L6.163,81.958C5.449,73.285 4.739,64.628 4.199,55.96C3.643,47.295 3.299,38.627 3.221,29.96C3.146,27.792 3.245,25.63 3.28,23.465L3.42,16.972C3.6,12.964 3.939,8.968 4.211,4.966C12.368,3.583 20.761,4.18 29.232,4.597C31.432,4.717 33.651,4.788 35.877,4.842L42.48,4.88L55.651,4.926L108.333,4.952L134.661,4.936C143.449,4.924 152.192,4.82 160.977,4.993L187.32,5.307L213.662,5.523L240.003,5.737C248.785,5.806 257.566,5.34 266.354,4.66C283.926,3.068 301.485,3.536 319.05,3.466C327.833,3.466 336.614,3.565 345.396,3.657L371.742,3.968C380.532,4.159 389.393,3.567 398.069,3.648C406.734,3.655 415.457,4.65 423.011,8.39C426.753,10.299 430.067,12.927 432.978,15.957L435.075,18.323C435.139,18.397 435.301,18.572 435.287,18.565L435.528,18.897L436.014,19.562L436.985,20.892L437.948,22.222L438.753,23.56C439.277,24.465 439.868,25.305 440.342,26.258C442.377,29.989 443.912,33.992 445.263,38.066C446.575,42.143 447.621,46.418 448.6,50.587C448.805,51.496 448.983,52.399 449.175,53.305C449.008,53.129 448.839,52.957 448.666,52.794C447.76,51.872 447.158,51.457 446.223,50.675C445.719,50.34 445.208,49.961 444.692,49.685C444.175,49.434 443.656,49.169 443.136,48.941C442.624,48.731 442.112,48.546 441.6,48.379C441.077,44.34 440.305,40.275 438.981,36.203C438.678,35.102 438.13,34.003 437.709,32.908C437.52,32.38 437.176,31.77 436.854,31.183L435.863,29.432C435.53,28.889 435.215,28.55 434.89,28.099L434.409,27.462L434.167,27.143C433.756,26.645 433.953,26.905 433.816,26.749L433.642,26.575C433.169,26.122 432.721,25.633 432.216,25.223C431.705,24.826 431.197,24.414 430.671,24.041C426.348,21.11 421.454,20.297 416.975,20.226C412.448,20.135 408.147,20.832 403.9,21.226C395.374,22.178 386.848,22.21 378.304,21.836C369.766,21.491 361.2,20.691 352.672,21.166L327.078,22.234L314.283,22.778L301.501,23.586L275.939,25.202L269.548,25.613L263.692,26.1L244.582,23.816L219.194,21.025L193.773,18.519L168.32,16.347L142.834,14.551L117.322,13.181L91.784,12.284L66.232,11.911L40.676,12.112L15.129,12.939L13.924,12.978L13.942,14.23L13.942,14.231L14.31,38.588L14.401,44.677L14.314,50.773L14.13,62.965L13.732,87.371L13.519,99.586L13.412,105.692C13.382,107.728 13.431,109.76 13.436,111.794L13.621,136.196L14.028,160.605C14.139,168.734 14.371,176.859 14.381,184.99L14.367,209.384C14.367,209.931 14.366,210.478 14.366,211.023C13.801,202.74 13.333,194.442 12.87,186.143ZM447.149,203.042C446.985,185.963 445.856,168.923 444.859,151.893C444.37,143.377 444.819,134.79 444.606,126.263C444.536,121.997 444.223,117.74 444.066,113.496L443.502,100.76L443.084,87.981L442.876,81.588C442.792,79.509 442.805,77.434 442.802,75.307C442.83,67.645 442.76,59.848 442.006,51.995L443.129,52.532C443.526,52.745 443.858,53.009 444.229,53.238C444.893,53.795 445.848,54.518 446.406,55.128C446.736,55.441 447.052,55.759 447.289,56.108C447.415,56.279 447.561,56.441 447.675,56.618L447.963,57.172C448.349,57.913 448.589,58.824 448.836,59.777L450.329,65.63C450.565,66.607 450.838,67.591 451.042,68.56L451.614,71.457C451.813,72.42 451.929,73.419 452.089,74.397C452.25,75.379 452.391,76.364 452.49,77.357C454.362,93.239 453.081,109.363 452.809,125.522C452.691,141.683 452.818,157.794 452.629,173.919C452.593,177.305 452.576,180.692 452.553,184.08C452.184,187.338 451.785,190.593 451.389,193.849C451.119,195.9 450.744,198.155 450.423,200.298C450.097,202.473 449.773,204.648 449.333,206.752C448.686,210.244 447.963,213.734 447.208,217.226C447.277,212.498 447.306,207.768 447.149,203.042ZM437.797,258.023C436.808,262.319 436.083,266.698 435.241,271.038L435.164,271.445C435.152,271.495 435.116,271.743 435.119,271.735L435.092,271.939L434.99,272.756L434.784,274.39L434.371,277.656C434.115,279.842 433.762,281.991 433.653,284.231L433.168,290.887C433.002,293.109 432.836,295.328 432.764,297.521C432.582,301.921 432.355,306.323 432.218,310.719C431.758,324.084 431.582,337.444 431.074,350.756L431.021,348.205L430.78,336.706C430.695,332.875 430.747,329.032 430.723,325.193L430.683,279.1C430.739,271.409 430.522,263.736 430.415,256.056C430.334,252.207 430.322,248.4 430.188,244.518L429.782,233.003C429.285,217.651 429.399,202.262 429.063,186.904C429.004,183.064 428.854,179.228 428.753,175.39L428.284,163.88C428.115,160.044 427.805,156.214 427.323,152.392L425.808,140.93C425.347,137.107 424.945,133.28 424.778,129.444C424.604,125.609 424.542,121.77 424.52,117.929C424.491,110.247 424.759,102.554 425.092,94.867C425.45,87.18 425.692,79.501 425.553,71.833C425.507,67.998 425.34,64.167 424.91,60.338C424.487,56.567 423.902,52.798 422.825,49.033L424.467,49.129C428.468,49.379 432.459,49.695 436.327,50.409C436.519,50.447 436.71,50.489 436.903,50.529C437.828,58.723 437.955,67.029 438.053,75.366C438.078,79.654 438.346,83.953 438.542,88.191C438.762,92.451 438.926,96.708 439.194,100.969C440.244,118.025 441.526,135.031 442.711,152.04C443.811,169.047 444.942,186.057 445.164,203.078C445.446,210.857 445.229,218.632 445.153,226.407C442.717,236.892 440.07,247.407 437.797,258.023ZM316.791,409.413C328.458,408.689 340.139,407.908 351.781,406.509C355.352,406.805 358.923,407.099 362.455,407.431C371.117,408.352 379.79,409.932 388.478,411.595C393.395,412.521 398.327,413.474 403.287,414.333C402.051,414.278 400.817,414.221 399.583,414.153C391.422,413.726 383.252,413.096 375.051,412.817L325.954,411.384L325.916,411.383C322.884,410.708 319.836,410.062 316.791,409.413ZM299.449,410.486C299.618,410.519 299.784,410.551 299.952,410.584C299.495,410.569 299.037,410.556 298.581,410.538C298.87,410.522 299.16,410.503 299.449,410.486ZM105.078,414.002L129.623,413.039L154.156,412.01L166.417,411.52L178.672,411.142C186.837,410.827 195.027,410.77 203.21,410.659L209.35,410.579C211.368,410.574 213.432,410.626 215.471,410.647L227.741,410.818L249.061,411.116L237.407,411.757L225.904,412.39C222.071,412.609 218.233,412.642 214.397,412.776L168.367,414.107L156.86,414.441L151.105,414.608C150.156,414.629 149.167,414.674 148.25,414.679L145.37,414.678L122.331,414.67L99.29,414.661C95.451,414.642 91.608,414.697 87.772,414.615L85.443,414.551C91.99,414.403 98.54,414.287 105.078,414.002ZM224.885,29.336L214.194,30.461C211.983,30.29 209.77,30.128 207.561,29.941L183.463,27.934L159.369,25.928L147.32,24.924L135.282,23.729L87.134,18.941L81.136,18.333C79.154,18.06 77.176,17.856 75.19,17.527L63.25,15.63C59.71,15.094 56.132,14.605 52.529,14.283L66.224,14.173L91.724,14.721C100.217,15.095 108.711,15.457 117.196,15.988C125.675,16.642 134.141,17.497 142.604,18.247C151.06,19.179 159.515,20.002 167.982,20.668C176.439,21.475 184.909,22.121 193.374,22.848L218.746,25.308L242.603,27.857L224.885,29.336ZM427.254,381.663C425.653,384.073 423.223,385.951 420.582,387.497L420.57,386.446L419.994,339.272L418.136,244.945L415.835,150.64L415.238,127.065L414.946,115.277C414.851,111.349 414.65,107.418 414.507,103.488L413.577,79.912L413.12,68.129L412.892,62.239L412.787,59.366C412.789,59.139 412.841,58.569 412.883,58.129L413.037,56.674C413.238,54.699 413.446,52.708 413.464,50.561C413.465,50.104 413.441,49.618 413.406,49.12L420.319,49.978L421.39,94.983C421.887,110.339 422.539,125.689 423.106,141.041L427.105,233.111L427.596,244.619C427.735,248.414 427.757,252.286 427.844,256.115C427.965,263.793 428.196,271.476 428.155,279.146L428.278,325.21C428.309,329.052 428.263,332.891 428.355,336.735L428.62,348.274L428.884,359.811C428.989,363.676 429.447,367.528 429.47,371.267C429.496,374.978 429.131,378.779 427.254,381.663ZM421.217,409.979C421.125,406.013 420.773,402.052 420.7,398.217L420.611,390.143C423.424,388.617 426.188,386.768 428.303,384.167C428.073,385.907 427.842,387.65 427.581,389.375C426.486,397.673 424.92,405.887 423.103,414.031C422.48,413.975 421.856,413.919 421.234,413.853C421.249,412.558 421.246,411.266 421.217,409.979ZM308.868,407.731C305.477,407.025 302.082,406.345 298.684,405.687L291.974,404.371L285.243,403.156C281.106,402.418 276.973,401.66 272.819,401.006L283.113,401.556L296.358,402.263L309.581,403.214C318.395,403.89 327.209,404.325 336.034,405.172C337.441,405.299 338.857,405.41 340.268,405.53C329.836,406.483 319.356,407.069 308.868,407.731ZM33.23,404.683L37.78,404.414C39.787,404.31 41.799,404.254 43.809,404.179L44.062,406.378C44.308,407.98 44.388,409.639 44.493,411.291C44.231,411.295 43.972,411.298 43.713,411.304C40.86,411.384 38.005,411.471 35.147,411.578C34.437,409.306 33.803,407.004 33.23,404.683ZM186.687,33.362L180.32,34.041L173.968,34.823L151.536,37.584L137.612,37.274L90.458,36.324L66.879,35.901L60.983,35.795C58.933,35.767 57.288,35.736 55.28,35.596C53.282,35.509 51.025,35.288 48.22,35.89C46.845,36.199 45.351,36.772 44.075,37.658C43.425,38.098 42.53,38.874 42.335,39.103L42.073,39.362C42.047,39.371 41.525,39.967 41.54,39.984C41.265,40.349 40.994,40.731 40.75,41.107C40.446,41.69 40.085,42.34 39.86,42.883C39.644,43.42 39.394,43.984 39.213,44.502C39.161,44.646 39.117,44.786 39.065,44.929L40.162,16.659C55.598,16.524 70.707,21.763 86.696,23.225C94.703,24.198 102.722,25.051 110.741,25.911C114.753,26.3 118.783,26.537 122.817,26.737C126.851,26.912 130.891,27.038 134.922,27.248C138.954,27.464 142.977,27.757 146.99,28.159L159.053,29.154L183.178,31.142L196.944,32.276L186.687,33.362ZM231.431,34.952L315.784,41.211L231.92,39.372L176.395,38.137L180.715,37.629L187.076,36.988L199.796,35.714L217.618,33.929C222.222,34.27 226.827,34.602 231.431,34.952ZM45.734,400.397L67.233,399.507C76.32,399.165 85.406,398.774 94.495,398.505C100.958,398.327 107.42,398.107 113.88,397.942L97.334,398.926C88.493,399.421 79.652,400.012 70.815,400.298L45.85,401.354L45.734,400.397ZM33.522,400.937L39.973,400.635L43.384,400.494C43.388,400.535 43.396,400.577 43.401,400.619L43.496,401.454C41.543,401.541 39.588,401.612 37.634,401.729L33.261,402.031C33.348,401.667 33.437,401.304 33.522,400.937ZM33.232,363.278C33.416,355.002 33.479,346.728 33.762,338.45L34.075,327.946L35.271,348.146C35.316,348.73 35.374,349.303 35.426,349.878L35,358.202L34.694,363.826L34.311,369.441C34.063,373.187 33.812,376.931 33.428,380.634L32.907,386.207C32.884,386.431 32.849,386.654 32.822,386.878C32.831,379.013 33.089,371.146 33.232,363.278ZM36.135,386.661L36.808,380.996C37.287,377.223 37.641,373.488 37.966,369.753C38.08,370.415 38.19,371.08 38.314,371.739C39.691,379.528 41.358,387.178 42.543,394.859C42.657,395.638 42.787,396.42 42.915,397.201L39.829,397.395C37.972,397.51 36.115,397.641 34.257,397.771L34.541,396.469C34.655,395.889 34.704,395.509 34.789,395.021L35.247,392.238C35.54,390.378 35.89,388.54 36.135,386.661ZM37.439,214.263C37.449,205.974 37.516,197.688 37.423,189.395C37.385,181.103 37.458,172.815 37.596,164.529C37.729,156.242 37.67,147.948 37.716,139.659L37.796,114.813L37.94,89.962L38.008,80.423L38.54,78.119L41.183,66.611C41.996,62.721 42.739,58.902 43.618,55.131C44.048,53.244 44.525,51.388 45.042,49.575C45.55,47.795 46.186,45.94 46.857,44.717C46.93,44.631 46.989,44.552 47.042,44.46C47.174,44.308 46.932,44.522 47.07,44.393L47.331,44.133C47.757,43.684 47.829,43.711 48.054,43.517C48.552,43.164 49.117,42.944 49.794,42.783C51.14,42.459 52.956,42.527 54.884,42.632C56.813,42.763 58.989,42.802 60.897,42.817L66.793,42.899L90.372,43.226L108.094,43.437L97.829,44.902C80.944,47.373 64.102,50.135 47.255,52.823L47.253,52.823L46.256,52.971L46.202,53.961L45.012,76.528L44.417,87.811L44.271,90.632L44.23,93.451L44.147,99.089L43.818,121.64C43.681,129.154 43.684,136.711 43.611,144.206L43.445,166.748C43.444,170.504 43.358,174.26 43.245,178.015L42.948,189.283L42.356,211.817C42.283,215.576 42.116,219.328 41.943,223.081L41.447,234.337L40.455,256.854C40.143,264.359 39.579,271.862 39.153,279.367L37.78,301.879L37.117,313.147L36.581,324.422L36.286,331.019C36.148,328.83 36.006,326.641 35.877,324.451L35.161,312.682C35.018,310.345 34.878,308.01 34.752,305.672L36.052,263.953L36.883,239.114C37.188,230.838 37.374,222.551 37.439,214.263ZM409.54,48.696L409.625,49.244C409.662,49.666 409.68,50.11 409.68,50.572C409.673,52.426 409.49,54.363 409.298,56.305C409.209,57.313 409.081,58.181 409.045,59.398L409.168,62.389L409.425,68.278L409.937,80.058L410.981,103.607C411.368,111.451 411.625,119.309 411.797,127.169C411.964,135.026 412.198,142.885 412.309,150.745C412.892,182.187 412.51,213.648 412.762,245.085L412.987,268.659C413.08,276.517 413.214,284.371 413.381,292.226C413.689,307.935 414.418,323.642 414.954,339.341L416.819,386.457L416.92,389.376C410.767,392.203 404.048,393.952 397.348,395.512C393.624,396.361 389.871,397.118 386.102,397.908C384.233,398.302 382.294,398.73 380.467,399.179L374.847,400.438C371.1,401.354 367.348,401.951 363.597,402.606L360.784,403.095L358.26,403.442C350.948,402.759 343.663,402.141 336.359,401.479L329.745,400.894L323.113,400.414L309.849,399.482L296.584,398.548L283.31,397.859L270.036,397.17L263.398,396.835L256.754,396.62L236.786,395.984C234.875,395.763 232.962,395.544 231.049,395.345L217.39,394.143L203.7,393.502L196.886,393.185C194.608,393.111 192.317,393.115 190.033,393.076L176.317,392.902C171.739,392.81 167.188,392.861 162.632,392.919L148.966,393.075C139.855,393.156 130.757,393.487 121.655,393.682C112.548,393.871 103.457,394.258 94.358,394.56C85.261,394.886 76.171,395.316 67.082,395.789C62.536,396.012 57.993,396.25 53.452,396.538L45.245,397.055C45.104,396.217 44.96,395.378 44.832,394.538C43.589,386.764 41.889,379.086 40.501,371.349C39.8,367.685 39.29,363.987 38.744,360.298L38.882,358.416L39.679,347.144L41.033,324.618L41.723,313.39L42.513,302.167L44.129,279.671C44.61,272.163 45.227,264.683 45.598,257.155C45.993,249.632 46.381,242.106 46.672,234.576C46.78,230.81 46.931,227.044 46.987,223.276C47.082,219.511 47.131,215.743 47.082,211.976C47.041,204.442 46.934,196.907 46.948,189.381L47.01,178.089L47.082,172.446L47.062,166.801L46.936,144.222L46.872,132.936L46.841,127.324L46.858,121.687L46.966,99.131L46.992,93.493L47.006,90.673L47.123,87.865L47.639,76.626L48.637,55.132L72.935,51.55L85.586,49.686L91.91,48.754L98.247,47.909L123.596,44.535L129.899,43.696L137.533,43.787L231.852,44.932L326.177,45.941L373.338,46.602L379.234,46.692C380.193,46.714 381.257,46.719 382.284,46.643C383.293,46.579 384.282,46.491 385.266,46.4C386.116,46.321 386.961,46.241 387.807,46.163C387.967,46.173 388.127,46.185 388.288,46.196C389.562,46.294 390.838,46.379 392.115,46.462L396.026,46.962L409.546,48.642C409.54,48.671 409.516,48.67 409.54,48.696ZM250.721,31.083L262.437,30.128L269.433,30.933L294.759,33.993L320.079,37.161L341.083,39.884C336.782,39.577 332.483,39.286 328.182,38.96L237.164,32.191L250.721,31.083ZM31.525,171.359L31.512,165.483L31.612,159.587L31.852,147.819C31.925,143.905 32.01,139.991 32.183,136.087C32.637,122.698 33.481,109.35 35.336,96.16L35.153,114.785L34.929,139.643C34.835,147.921 34.846,156.201 34.666,164.481L34.16,189.319C34.015,197.6 33.736,205.88 33.53,214.159L32.543,249.126L32.067,230.233C31.891,222.378 31.623,214.526 31.52,206.676L31.533,183.127L31.525,171.359ZM227.749,409.565L215.473,409.368C213.425,409.32 211.381,409.239 209.333,409.217L203.193,409.174L178.62,408.755C170.417,408.611 162.206,408.443 154.012,408.453C145.812,408.41 137.62,408.457 129.44,408.645C121.252,408.827 113.086,409.096 104.918,409.387C96.748,409.732 88.596,409.948 80.433,410.253C76.352,410.463 72.275,410.545 68.196,410.645C64.118,410.724 60.039,410.919 55.957,411.051C52.937,411.157 49.921,411.199 46.9,411.249C46.78,409.59 46.702,407.934 46.44,406.27L46.179,404.097L70.964,403.238C79.841,403.012 88.675,402.504 97.521,402.057L124.036,400.603C132.858,400.015 141.703,399.89 150.539,399.605L163.794,399.217C168.213,399.126 172.636,399.151 177.055,399.112L190.318,399.028L196.949,398.972C199.159,398.956 201.37,399.018 203.581,399.038L224.282,399.315L230.61,399.889C235.118,400.362 239.618,400.923 244.12,401.437C248.621,401.964 253.104,402.666 257.596,403.274C262.092,403.856 266.559,404.673 271.039,405.364C275.521,406.051 279.981,406.886 284.447,407.687L290.793,408.817C283.372,409.236 275.944,409.635 268.519,410.04L227.749,409.565ZM415.192,413.093C406.477,411.858 397.819,410.078 389.135,408.326C381.694,406.831 374.219,405.343 366.641,404.33C369.562,403.831 372.48,403.312 375.335,402.618L380.959,401.37C382.853,400.909 384.68,400.51 386.568,400.118C390.319,399.337 394.092,398.582 397.853,397.733C404.32,396.234 410.827,394.584 417.007,391.88L417.229,398.276C417.392,402.333 417.823,406.184 417.995,410.069C418.042,411.209 418.064,412.348 418.069,413.484C417.109,413.362 416.151,413.234 415.192,413.093ZM430.323,30.018L430.56,30.338L431.038,30.98C431.338,31.407 431.711,31.836 431.954,32.263C432.371,33.139 432.885,33.895 433.256,34.851C433.608,35.811 434.069,36.714 434.336,37.717C435.315,40.755 435.983,43.929 436.463,47.147C432.501,46.45 428.568,46.142 424.666,45.898L418.643,45.55C416.733,45.43 414.711,45.196 412.691,45.019L411.285,44.887C411.239,44.849 411.193,44.812 411.146,44.772C410.625,44.359 410.076,44.011 409.53,43.734C407.323,42.611 405.153,42.223 403.05,41.949C400.946,41.704 398.885,41.644 396.851,41.664C392.787,41.712 388.799,42.086 384.906,42.423C384.866,42.427 384.826,42.429 384.787,42.432L371.156,40.507L320.582,33.458L295.272,30.076L284.033,28.644L301.731,27.555L314.491,26.77L327.262,26.249L352.807,25.223L359.192,24.955L365.582,24.821L378.361,24.574L403.92,24.078C408.194,24.035 412.422,23.928 416.543,24.355C420.633,24.791 424.721,25.722 427.948,27.952C428.34,28.238 428.711,28.55 429.096,28.845C429.473,29.151 429.787,29.52 430.139,29.851L430.268,29.978C430.278,29.982 430.426,30.15 430.323,30.018ZM20.297,172.73C20.212,168.654 20.04,164.578 19.906,160.503L18.894,136.144C18.615,128.012 18.353,119.879 18.184,111.747C18.15,109.716 18.071,107.676 18.072,105.651L18.132,99.572C18.171,95.52 18.26,91.466 18.355,87.413L18.657,75.254L18.886,63.033C18.919,58.958 18.945,54.884 18.915,50.809C18.914,48.771 18.898,46.735 18.85,44.696C18.748,42.653 18.683,40.611 18.547,38.569C18.106,30.816 17.522,23.071 16.57,15.365C23.629,15.031 30.691,14.754 37.756,14.491L37.725,15.353L37.724,15.36L36.161,55.856C35.47,58.979 34.83,62.093 34.193,65.116L31.542,76.579L30.862,79.503C30.646,80.48 30.5,81.468 30.315,82.451L29.262,88.354C26.627,104.121 25.352,120.044 25.122,135.872C24.923,151.722 25.717,167.422 26.798,183.178C27.3,191.048 27.759,198.91 28.151,206.77C28.617,214.625 29.179,222.474 29.538,230.329L30.554,253.896C30.847,261.754 31.364,269.604 31.664,277.462L31.719,278.776L31.447,288.688C31.242,296.971 30.963,305.25 30.819,313.536L30.31,338.391C30.104,346.675 30.118,354.966 30.013,363.253C29.947,371.492 29.803,379.73 29.929,387.975C28.88,381.398 28.038,374.782 27.299,368.152C25.414,350.893 24.323,333.543 22.959,316.183C22.61,311.844 22.233,307.5 21.777,303.155L20.577,290.182L18.815,271.027L19.187,258.204C19.678,241.939 20.189,225.693 20.307,209.393C20.382,201.248 20.506,193.102 20.497,184.957C20.558,180.886 20.387,176.806 20.297,172.73ZM414.293,429.127C414.112,429.262 413.89,429.435 413.848,429.41C413.802,429.426 413.767,429.446 413.719,429.474L413.456,429.564C413.291,429.633 413.088,429.681 412.888,429.729C411.248,430.114 409.303,430.166 407.38,430.186C406.406,430.198 405.437,430.185 404.372,430.228L401.39,430.457L395.511,430.914C394.106,430.976 392.709,431.002 391.311,431.031C391.222,430.994 391.135,430.955 391.045,430.919L384.708,428.24C382.58,427.386 380.415,426.634 378.27,425.825C373.997,424.155 369.602,422.871 365.26,421.416C356.499,418.788 347.673,416.362 338.78,414.322C337.168,413.944 335.568,413.591 333.962,413.221L374.965,414.706C389.22,415.343 403.538,417.087 417.988,416.906C417.912,418.454 417.787,419.99 417.55,421.491C417.231,423.321 416.759,425.097 416.026,426.68C415.596,427.407 415.2,428.178 414.625,428.735L414.428,428.965C414.414,428.987 414.309,429.103 414.293,429.127ZM441.651,343.666L441.162,356.445C440.484,373.484 439.898,390.527 439.148,407.562L438.787,414.414C434.456,414.636 430.102,414.558 425.752,414.249C428.364,406.325 430.512,398.228 432.159,390.056C433.133,385.7 433.876,381.391 434.67,377.065C435.389,372.659 435.979,368.177 436.493,363.746C438.289,346.056 438.819,328.484 439.635,311.017L440.286,297.956C440.364,295.758 440.533,293.648 440.696,291.533L441.129,285.172C441.208,283.075 441.575,280.859 441.799,278.688L442.177,275.415L442.367,273.777L442.459,272.961L442.484,272.756C442.49,272.711 442.492,272.7 442.493,272.69L442.553,272.344C443.102,269.322 443.578,266.295 444.125,263.265L442.854,305.314L442.051,330.882L441.651,343.666ZM459.495,102.142C459.096,93.336 458.458,84.529 457.492,75.74C456.43,67.004 455.014,58.099 453.184,49.566C452.163,45.166 451.129,40.9 449.751,36.577C448.36,32.283 446.661,28.029 444.433,23.992C443.914,22.971 443.219,21.973 442.617,20.963L441.676,19.458L440.699,18.125L439.719,16.801L439.228,16.14L438.985,15.809C438.963,15.774 438.758,15.518 438.773,15.55L438.624,15.39C437.821,14.539 436.786,13.893 435.712,13.334C434.685,12.729 433.475,12.35 432.584,11.661C432.117,11.339 431.713,10.948 431.287,10.581C430.868,10.204 430.375,9.916 429.925,9.58C428.988,8.954 428.114,8.233 427.125,7.69L424.166,6.062C420.092,4.122 415.724,2.946 411.328,2.263C406.926,1.558 402.481,1.391 398.073,1.42C389.231,1.438 380.511,2.09 371.732,1.981L319.05,1.512L213.685,0.755L161,0.388C152.221,0.266 143.426,0.397 134.649,0.481L108.298,0.735L55.613,1.376L42.442,1.548C38.032,1.615 33.699,1.684 29.322,1.512C24.941,1.399 20.539,1.191 16.096,1.279C11.655,1.377 7.181,1.74 2.767,2.68L1.865,2.872L1.803,3.771L1.801,3.782C1.375,8.131 0.84,12.488 0.557,16.857L0.257,23.414C0.168,25.601 0.017,27.792 0.039,29.976C-0.095,38.726 0.125,47.471 0.554,56.189C0.99,64.904 1.574,73.612 2.24,82.274L3.192,95.279L3.664,101.772L4.062,108.278L5.699,134.298C6.265,142.97 6.871,151.636 7.352,160.325L8.876,186.375C9.376,195.058 9.878,203.741 10.499,212.441L12.27,238.522L13.155,251.563L14.1,261.367L13.896,306.992C13.875,311.067 13.887,315.13 13.809,319.176L13.533,331.365C13.331,339.497 13.143,347.639 13.085,355.785C13.032,363.933 13.086,372.088 13.467,380.25C13.667,384.332 13.93,388.414 14.4,392.494L14.764,395.555C14.899,396.574 15.101,397.592 15.268,398.61C15.295,398.808 12.715,401.915 12.715,401.915L15.896,401.766C16.134,402.744 16.394,403.725 16.631,404.704L16.861,405.655L17.932,405.581L17.934,405.581L29.748,404.888C29.182,407.949 28.797,411.108 28.953,414.305L29.008,415.451L30.147,415.484L30.148,415.484L33.813,415.577C34.342,416.967 34.889,418.35 35.414,419.736L35.704,420.5L36.531,420.495L36.544,420.495C52.271,420.842 68.004,421.01 83.739,421.273L130.905,421.177C146.621,421.186 162.338,421.136 178.047,421.261C185.905,421.248 193.757,421.399 201.612,421.478C205.539,421.535 209.467,421.541 213.391,421.659C217.317,421.731 221.238,421.959 225.174,421.681C229.11,421.457 233.06,420.907 236.99,420.948C240.919,421.01 244.842,421.26 248.769,421.407L260.545,421.931L272.309,422.697L284.07,423.481C287.987,423.781 291.893,424.196 295.804,424.549L307.535,425.648C311.444,426.005 315.34,426.557 319.244,427.002C334.877,428.715 350.364,431.291 366.085,432.766C368.045,432.983 370.013,433.127 371.983,433.244L377.893,433.629L383.819,433.806C384.808,433.83 385.794,433.878 386.786,433.881L387.627,433.869L389.456,434.614C391.563,435.426 393.576,436.38 395.597,437.323C397.619,438.286 399.661,439.149 401.669,440.192L407.686,443.409L409.194,444.21L409.885,444.583L410.568,444.999C411.478,445.551 412.389,446.174 413.292,446.823C416.91,449.425 420.52,452.275 424.39,454.839C426.338,456.111 428.351,457.324 430.53,458.323C432.7,459.298 435.122,460.062 437.733,459.955L437.738,459.956L438.881,460L438.941,458.792L440.999,416.784C441.204,416.765 441.409,416.753 441.614,416.732L442.704,416.616L442.744,415.545L442.744,415.54C443.959,399.457 445.141,383.376 446.22,367.29L449.547,319.034L452.908,270.766L453.71,258.685L454.236,246.578L454.763,234.472C454.93,230.437 455.148,226.402 455.196,222.366L455.638,201.662C455.66,201.483 455.683,201.305 455.704,201.127C455.961,198.92 456.245,196.821 456.482,194.527C456.866,190.13 457.317,185.743 457.652,181.348C458.349,172.559 458.883,163.764 459.27,154.966C459.501,150.569 459.583,146.167 459.76,141.769L459.885,135.167C459.93,132.967 459.958,130.766 459.933,128.564C460.078,119.758 459.79,110.952 459.495,102.142Z" style="fill:rgb(215,202,189);fill-rule:nonzero;"/>
    </g>
</svg>
