<svg viewBox="0 0 1200 630" xmlns="http://www.w3.org/2000/svg" xml:space="preserve" style="fill-rule:evenodd;clip-rule:evenodd;stroke-linejoin:round;stroke-miterlimit:2"><path d="M.071-.714h.132l.326.526h.002v-.526H.65V0H.518L.193-.525H.19V0H.071v-.714Z" style="fill-rule:nonzero" transform="translate(431.941 599.74) scale(58.3333)"/><path d="M.068-.714h.125v.416c0 .024.001.048.004.073a.155.155 0 0 0 .02.066c.011.02.027.036.05.049a.186.186 0 0 0 .094.019.193.193 0 0 0 .095-.019.13.13 0 0 0 .05-.049.17.17 0 0 0 .02-.066.91.91 0 0 0 .003-.073v-.416h.125v.457a.314.314 0 0 1-.021.12A.236.236 0 0 1 .481 0a.41.41 0 0 1-.24 0 .238.238 0 0 1-.152-.137.314.314 0 0 1-.021-.12v-.457Z" style="fill-rule:nonzero" transform="translate(474.058 599.74) scale(58.3333)"/><path d="M.38-.629a.19.19 0 0 0-.166.084.376.376 0 0 0 0 .375c.017.026.04.047.068.062a.2.2 0 0 0 .098.023.207.207 0 0 0 .099-.023.19.19 0 0 0 .067-.062.288.288 0 0 0 .039-.087.42.42 0 0 0 0-.2.306.306 0 0 0-.039-.088.196.196 0 0 0-.067-.061.207.207 0 0 0-.099-.023Zm0-.102a.32.32 0 0 1 .251.111.377.377 0 0 1 .068.119.453.453 0 0 1 0 .289.377.377 0 0 1-.068.119.304.304 0 0 1-.107.08.337.337 0 0 1-.144.03.33.33 0 0 1-.318-.229.433.433 0 0 1 .067-.408.33.33 0 0 1 .251-.111Z" style="fill-rule:nonzero" transform="translate(516.175 599.74) scale(58.3333)"/><path d="M-.005-.714h.13l.179.565h.002l.183-.565h.127L.372 0H.233l-.238-.714Z" style="fill-rule:nonzero" transform="translate(560.508 599.74) scale(58.3333)"/><path d="M.38-.629a.19.19 0 0 0-.166.084.376.376 0 0 0 0 .375c.017.026.04.047.068.062a.2.2 0 0 0 .098.023.207.207 0 0 0 .099-.023.19.19 0 0 0 .067-.062.288.288 0 0 0 .039-.087.42.42 0 0 0 0-.2.306.306 0 0 0-.039-.088.196.196 0 0 0-.067-.061.207.207 0 0 0-.099-.023Zm0-.102a.32.32 0 0 1 .251.111.377.377 0 0 1 .068.119.453.453 0 0 1 0 .289.377.377 0 0 1-.068.119.304.304 0 0 1-.107.08.337.337 0 0 1-.144.03.33.33 0 0 1-.318-.229.433.433 0 0 1 .067-.408.33.33 0 0 1 .251-.111Z" style="fill-rule:nonzero" transform="translate(596.15 599.74) scale(58.3333)"/><path d="M.008-.714h.578v.108H.359V0H.234v-.606H.008v-.108Z" style="fill-rule:nonzero" transform="translate(640.483 599.74) scale(58.3333)"/><path d="M.267-.714H.4L.675 0H.541L.474-.189H.189L.122 0h-.129l.274-.714Zm-.044.43h.218L.334-.591H.331l-.108.307Z" style="fill-rule:nonzero" transform="translate(669.708 599.74) scale(58.3333)"/><path d="M.076-.714h.125v.325l.318-.325h.154l-.285.285L.693 0H.537L.303-.341.201-.24V0H.076v-.714Z" style="fill-rule:nonzero" transform="translate(708.616 599.74) scale(58.3333)"/><path d="M.267-.714H.4L.675 0H.541L.474-.189H.189L.122 0h-.129l.274-.714Zm-.044.43h.218L.334-.591H.331l-.108.307Z" style="fill-rule:nonzero" transform="translate(748.575 599.74) scale(58.3333)"/><path d="m450.887 246.417-.53 12.071-.809 12.064-3.262 48.274c-1.131 16.086-2.088 32.194-3.072 48.298l-.648 10.593c.248-7.066.493-14.129.753-21.193l.454-12.786.366-12.786.734-25.576 1.463-51.146.075-2.657c1.766-8.742 3.65-17.519 5.361-26.392-.089 3.056-.226 6.11-.354 9.164l-.531 12.072Zm-14.363 210.962c-1.607-.198-3.245-.778-4.805-1.557-1.936-.967-3.8-2.171-5.621-3.453-3.646-2.584-7.069-5.539-10.765-8.316a46.38 46.38 0 0 0-2.874-2.028l-.752-.485c-.336-.204-.521-.298-.788-.451l-1.485-.838-5.944-3.349c-2-1.093-4.122-2.05-6.181-3.081-.125-.06-.248-.122-.373-.183l4.672-.325 2.901-.2c.908-.031 1.904-.011 2.892-.016 1.995-.015 4.012-.01 6.189-.492.275-.066.548-.131.837-.239l.427-.149c.17-.076.347-.164.517-.255.402-.203.528-.329.74-.476.322-.252.256-.251.403-.388l.287-.318c.829-.819 1.362-1.789 1.92-2.741.944-1.959 1.487-3.991 1.863-6.014.293-1.737.452-3.464.548-5.19.218-.007.435-.019.652-.028 5.597.461 11.242.583 16.867.178l-2.127 40.394Zm-64.365-26.846c-1.951-.11-3.9-.244-5.846-.462l-5.843-.574-5.836-.692c-3.89-.438-7.781-1.001-11.671-1.498l-5.839-.798-2.949-.399-2.925-.353-11.703-1.454c-3.906-.464-7.789-1.033-11.713-1.409l-11.775-1.16c-3.926-.375-7.851-.802-11.781-1.131l-11.785-.856-11.787-.856-11.796-.64c-7.867-.429-15.732-.877-23.605-1.018-31.49-.711-62.963-.463-94.414-.086l-47.16.685-36.264.137c-.064-.681-.116-1.361-.175-2.042l28.955.75 11.525.299c3.839.071 7.679.007 11.52.017l23.04-.043 23.04-.042c3.835.048 7.711-.172 11.536-.261l11.518-.361 46.081-1.338c3.839-.134 7.684-.168 11.518-.386l11.503-.634 23.004-1.267c6.713-.384 13.425-.742 20.135-1.106l8.423.118c4.09.019 8.18.258 12.27.375l7.242.26c.856.176 1.715.346 2.569.529 8.86 1.814 17.802 3.783 26.602 5.82 8.841 2.008 17.56 4.388 26.235 6.893 4.285 1.392 8.628 2.645 12.845 4.225 1.105.4 2.214.787 3.322 1.18l-2.165-.057-5.851-.365ZM36.507 415.649l8.314.213c.054.705.097 1.411.156 2.116l-7.567.028a82.857 82.857 0 0 1-.903-2.357Zm-6.926-14.527.29 1.144-11.098.765c-.119-.46-.239-.922-.346-1.385l11.154-.524Zm-13.563-20.995c-.324-8.089-.224-16.208-.073-24.32.201-8.117.576-16.234.942-24.36l.532-12.211.19-6.143.168-6.089.182-6.3.28 2.833c.477 4.287.878 8.602 1.251 12.924l2.131 26.004c.762 8.678 1.583 17.355 2.626 26.021 1.051 8.665 2.274 17.32 3.919 25.918l.784 3.752c-.911.07-1.825.135-2.737.204-2.781.207-5.565.418-8.345.638-1.174-6.145-1.567-12.544-1.85-18.871ZM12.87 186.143l-1.472-26.052c-.46-8.684-1.05-17.367-1.599-26.051l-1.666-26.051c-.265-4.339-.556-8.69-.917-13.022L6.163 81.958c-.714-8.673-1.424-17.33-1.964-25.998-.556-8.665-.9-17.333-.978-26-.075-2.168.024-4.33.059-6.495l.14-6.493c.18-4.008.519-8.004.791-12.006 8.157-1.383 16.55-.786 25.021-.369 2.2.12 4.419.191 6.645.245l6.603.038 13.171.046 52.682.026 26.328-.016c8.788-.012 17.531-.116 26.316.057l26.343.314 26.342.216 26.341.214c8.782.069 17.563-.397 26.351-1.077 17.572-1.592 35.131-1.124 52.696-1.194 8.783 0 17.564.099 26.346.191l26.346.311c8.79.191 17.651-.401 26.327-.32 8.665.007 17.388 1.002 24.942 4.742 3.742 1.909 7.056 4.537 9.967 7.567l2.097 2.366c.064.074.226.249.212.242l.241.332.486.665.971 1.33.963 1.33.805 1.338c.524.905 1.115 1.745 1.589 2.698 2.035 3.731 3.57 7.734 4.921 11.808 1.312 4.077 2.358 8.352 3.337 12.521.205.909.383 1.812.575 2.718a12.918 12.918 0 0 0-.509-.511c-.906-.922-1.508-1.337-2.443-2.119-.504-.335-1.015-.714-1.531-.99-.517-.251-1.036-.516-1.556-.744a22.089 22.089 0 0 0-1.536-.562c-.523-4.039-1.295-8.104-2.619-12.176-.303-1.101-.851-2.2-1.272-3.295-.189-.528-.533-1.138-.855-1.725l-.991-1.751c-.333-.543-.648-.882-.973-1.333l-.481-.637-.242-.319c-.411-.498-.214-.238-.351-.394l-.174-.174c-.473-.453-.921-.942-1.426-1.352-.511-.397-1.019-.809-1.545-1.182-4.323-2.931-9.217-3.744-13.696-3.815-4.527-.091-8.828.606-13.075 1-8.526.952-17.052.984-25.596.61-8.538-.345-17.104-1.145-25.632-.67l-25.594 1.068-12.795.544-12.782.808-25.562 1.616-6.391.411-5.856.487-19.11-2.284-25.388-2.791-25.421-2.506-25.453-2.172-25.486-1.796-25.512-1.37-25.538-.897-25.552-.373-25.556.201-25.547.827-1.205.039.018 1.252v.001l.368 24.357.091 6.089-.087 6.096-.184 12.192-.398 24.406-.213 12.215-.107 6.106c-.03 2.036.019 4.068.024 6.102l.185 24.402.407 24.409c.111 8.129.343 16.254.353 24.385l-.014 24.394-.001 1.639c-.565-8.283-1.033-16.581-1.496-24.88Zm434.279 16.899c-.164-17.079-1.293-34.119-2.29-51.149-.489-8.516-.04-17.103-.253-25.63-.07-4.266-.383-8.523-.54-12.767l-.564-12.736-.418-12.779-.208-6.393c-.084-2.079-.071-4.154-.074-6.281.028-7.662-.042-15.459-.796-23.312l1.123.537c.397.213.729.477 1.1.706.664.557 1.619 1.28 2.177 1.89.33.313.646.631.883.98.126.171.272.333.386.51l.288.554c.386.741.626 1.652.873 2.605l1.493 5.853c.236.977.509 1.961.713 2.93l.572 2.897c.199.963.315 1.962.475 2.94.161.982.302 1.967.401 2.96 1.872 15.882.591 32.006.319 48.165-.118 16.161.009 32.272-.18 48.397-.036 3.386-.053 6.773-.076 10.161-.369 3.258-.768 6.513-1.164 9.769-.27 2.051-.645 4.306-.966 6.449-.326 2.175-.65 4.35-1.09 6.454a359.733 359.733 0 0 1-2.125 10.474c.069-4.728.098-9.458-.059-14.184Zm-9.352 54.981c-.989 4.296-1.714 8.675-2.556 13.015l-.077.407a4.73 4.73 0 0 0-.045.29l-.027.204-.102.817-.206 1.634-.413 3.266c-.256 2.186-.609 4.335-.718 6.575l-.485 6.656c-.166 2.222-.332 4.441-.404 6.634-.182 4.4-.409 8.802-.546 13.198-.46 13.365-.636 26.725-1.144 40.037l-.053-2.551-.241-11.499c-.085-3.831-.033-7.674-.057-11.513l-.04-46.093c.056-7.691-.161-15.364-.268-23.044-.081-3.849-.093-7.656-.227-11.538l-.406-11.515c-.497-15.352-.383-30.741-.719-46.099-.059-3.84-.209-7.676-.31-11.514l-.469-11.51a141.555 141.555 0 0 0-.961-11.488l-1.515-11.462c-.461-3.823-.863-7.65-1.03-11.486-.174-3.835-.236-7.674-.258-11.515-.029-7.682.239-15.375.572-23.062.358-7.687.6-15.366.461-23.034-.046-3.835-.213-7.666-.643-11.495-.423-3.771-1.008-7.54-2.085-11.305l1.642.096c4.001.25 7.992.566 11.86 1.28.192.038.383.08.576.12.925 8.194 1.052 16.5 1.15 24.837.025 4.288.293 8.587.489 12.825.22 4.26.384 8.517.652 12.778 1.05 17.056 2.332 34.062 3.517 51.071 1.1 17.007 2.231 34.017 2.453 51.038.282 7.779.065 15.554-.011 23.329-2.436 10.485-5.083 21-7.356 31.616Zm-121.006 151.39c11.667-.724 23.348-1.505 34.99-2.904 3.571.296 7.142.59 10.674.922 8.662.921 17.335 2.501 26.023 4.164 4.917.926 9.849 1.879 14.809 2.738-1.236-.055-2.47-.112-3.704-.18-8.161-.427-16.331-1.057-24.532-1.336l-49.097-1.433-.038-.001c-3.032-.675-6.08-1.321-9.125-1.97Zm-17.342 1.073.503.098c-.457-.015-.915-.028-1.371-.046.289-.016.579-.035.868-.052Zm-194.371 3.516 24.545-.963 24.533-1.029 12.261-.49 12.255-.378c8.165-.315 16.355-.372 24.538-.483l6.14-.08c2.018-.005 4.082.047 6.121.068l12.27.171 21.32.298-11.654.641-11.503.633c-3.833.219-7.671.252-11.507.386l-46.03 1.331-11.507.334-5.755.167c-.949.021-1.938.066-2.855.071l-2.88-.001-23.039-.008-23.041-.009c-3.839-.019-7.682.036-11.518-.046l-2.329-.064c6.547-.148 13.097-.264 19.635-.549ZM224.885 29.336l-10.691 1.125c-2.211-.171-4.424-.333-6.633-.52l-24.098-2.007-24.094-2.006-12.049-1.004-12.038-1.195-48.148-4.788-5.998-.608c-1.982-.273-3.96-.477-5.946-.806L63.25 15.63c-3.54-.536-7.118-1.025-10.721-1.347l13.695-.11 25.5.548c8.493.374 16.987.736 25.472 1.267 8.479.654 16.945 1.509 25.408 2.259a814.949 814.949 0 0 0 25.378 2.421c8.457.807 16.927 1.453 25.392 2.18l25.372 2.46 23.857 2.549-17.718 1.479Zm202.369 352.327c-1.601 2.41-4.031 4.288-6.672 5.834l-.012-1.051-.576-47.174-1.858-94.327-2.301-94.305-.597-23.575-.292-11.788c-.095-3.928-.296-7.859-.439-11.789l-.93-23.576-.457-11.783-.228-5.89-.105-2.873c.002-.227.054-.797.096-1.237l.154-1.455c.201-1.975.409-3.966.427-6.113.001-.457-.023-.943-.058-1.441l6.913.858 1.071 45.005c.497 15.356 1.149 30.706 1.716 46.058l3.999 92.07.491 11.508c.139 3.795.161 7.667.248 11.496.121 7.678.352 15.361.311 23.031l.123 46.064c.031 3.842-.015 7.681.077 11.525l.265 11.539.264 11.537c.105 3.865.563 7.717.586 11.456.026 3.711-.339 7.512-2.216 10.396Zm-6.037 28.316c-.092-3.966-.444-7.927-.517-11.762l-.089-8.074c2.813-1.526 5.577-3.375 7.692-5.976-.23 1.74-.461 3.483-.722 5.208-1.095 8.298-2.661 16.512-4.478 24.656-.623-.056-1.247-.112-1.869-.178.015-1.295.012-2.587-.017-3.874Zm-112.349-2.248a742.468 742.468 0 0 0-10.184-2.044l-6.71-1.316-6.731-1.215c-4.137-.738-8.27-1.496-12.424-2.15l10.294.55 13.245.707 13.223.951c8.814.676 17.628 1.111 26.453 1.958 1.407.127 2.823.238 4.234.358-10.432.953-20.912 1.539-31.4 2.201ZM33.23 404.683l4.55-.269c2.007-.104 4.019-.16 6.029-.235l.253 2.199c.246 1.602.326 3.261.431 4.913-.262.004-.521.007-.78.013-2.853.08-5.708.167-8.566.274a117.668 117.668 0 0 1-1.917-6.895ZM186.687 33.362l-6.367.679-6.352.782-22.432 2.761-13.924-.31-47.154-.95-23.579-.423-5.896-.106c-2.05-.028-3.695-.059-5.703-.199-1.998-.087-4.255-.308-7.06.294-1.375.309-2.869.882-4.145 1.768-.65.44-1.545 1.216-1.74 1.445l-.262.259c-.026.009-.548.605-.533.622a19.84 19.84 0 0 0-.79 1.123c-.304.583-.665 1.233-.89 1.776-.216.537-.466 1.101-.647 1.619-.052.144-.096.284-.148.427l1.097-28.27c15.436-.135 30.545 5.104 46.534 6.566 8.007.973 16.026 1.826 24.045 2.686 4.012.389 8.042.626 12.076.826 4.034.175 8.074.301 12.105.511 4.032.216 8.055.509 12.068.911l12.063.995 24.125 1.988 13.766 1.134-10.257 1.086Zm44.744 1.59 84.353 6.259-83.864-1.839-55.525-1.235 4.32-.508 6.361-.641 12.72-1.274 17.822-1.785c4.604.341 9.209.673 13.813 1.023ZM45.734 400.397l21.499-.89c9.087-.342 18.173-.733 27.262-1.002 6.463-.178 12.925-.398 19.385-.563l-16.546.984c-8.841.495-17.682 1.086-26.519 1.372l-24.965 1.056-.116-.957Zm-12.212.54 6.451-.302 3.411-.141c.004.041.012.083.017.125l.095.835c-1.953.087-3.908.158-5.862.275l-4.373.302c.087-.364.176-.727.261-1.094Zm-.29-37.659c.184-8.276.247-16.55.53-24.828l.313-10.504 1.196 20.2c.045.584.103 1.157.155 1.732L35 358.202l-.306 5.624-.383 5.615c-.248 3.746-.499 7.49-.883 11.193l-.521 5.573c-.023.224-.058.447-.085.671.009-7.865.267-15.732.41-23.6Zm2.903 23.383.673-5.665c.479-3.773.833-7.508 1.158-11.243.114.662.224 1.327.348 1.986 1.377 7.789 3.044 15.439 4.229 23.12.114.779.244 1.561.372 2.342l-3.086.194c-1.857.115-3.714.246-5.572.376l.284-1.302c.114-.58.163-.96.248-1.448l.458-2.783c.293-1.86.643-3.698.888-5.577Zm1.304-172.398c.01-8.289.077-16.575-.016-24.868-.038-8.292.035-16.58.173-24.866.133-8.287.074-16.581.12-24.87l.08-24.846.144-24.851.068-9.539.532-2.304 2.643-11.508c.813-3.89 1.556-7.709 2.435-11.48.43-1.887.907-3.743 1.424-5.556.508-1.78 1.144-3.635 1.815-4.858.073-.086.132-.165.185-.257.132-.152-.11.062.028-.067l.261-.26c.426-.449.498-.422.723-.616.498-.353 1.063-.573 1.74-.734 1.346-.324 3.162-.256 5.09-.151 1.929.131 4.105.17 6.013.185l5.896.082 23.579.327 17.722.211-10.265 1.465c-16.885 2.471-33.727 5.233-50.574 7.921h-.002l-.997.148-.054.99-1.19 22.567-.595 11.283-.146 2.821-.041 2.819-.083 5.638-.329 22.551c-.137 7.514-.134 15.071-.207 22.566l-.166 22.542c-.001 3.756-.087 7.512-.2 11.267l-.297 11.268-.592 22.534c-.073 3.759-.24 7.511-.413 11.264l-.496 11.256-.992 22.517c-.312 7.505-.876 15.008-1.302 22.513l-1.373 22.512-.663 11.268-.536 11.275-.295 6.597c-.138-2.189-.28-4.378-.409-6.568l-.716-11.769a965.146 965.146 0 0 1-.409-7.01l1.3-41.719.831-24.839a857.47 857.47 0 0 0 .556-24.851ZM409.54 48.696l.085.548c.037.422.055.866.055 1.328-.007 1.854-.19 3.791-.382 5.733-.089 1.008-.217 1.876-.253 3.093l.123 2.991.257 5.889.512 11.78 1.044 23.549c.387 7.844.644 15.702.816 23.562.167 7.857.401 15.716.512 23.576.583 31.442.201 62.903.453 94.34l.225 23.574c.093 7.858.227 15.712.394 23.567.308 15.709 1.037 31.416 1.573 47.115l1.865 47.116.101 2.919c-6.153 2.827-12.872 4.576-19.572 6.136-3.724.849-7.477 1.606-11.246 2.396-1.869.394-3.808.822-5.635 1.271l-5.62 1.259c-3.747.916-7.499 1.513-11.25 2.168l-2.813.489-2.524.347c-7.312-.683-14.597-1.301-21.901-1.963l-6.614-.585-6.632-.48-13.264-.932-13.265-.934-13.274-.689-13.274-.689-6.638-.335-6.644-.215-19.968-.636c-1.911-.221-3.824-.44-5.737-.639l-13.659-1.202-13.69-.641-6.814-.317c-2.278-.074-4.569-.07-6.853-.109l-13.716-.174c-4.578-.092-9.129-.041-13.685.017l-13.666.156c-9.111.081-18.209.412-27.311.607-9.107.189-18.198.576-27.297.878-9.097.326-18.187.756-27.276 1.229-4.546.223-9.089.461-13.63.749l-8.207.517c-.141-.838-.285-1.677-.413-2.517-1.243-7.774-2.943-15.452-4.331-23.189-.701-3.664-1.211-7.362-1.757-11.051l.138-1.882.797-11.272 1.354-22.526.69-11.228.79-11.223 1.616-22.496c.481-7.508 1.098-14.988 1.469-22.516.395-7.523.783-15.049 1.074-22.579.108-3.766.259-7.532.315-11.3.095-3.765.144-7.533.095-11.3-.041-7.534-.148-15.069-.134-22.595l.062-11.292.072-5.643-.02-5.645-.126-22.579-.064-11.286-.031-5.612.017-5.637.108-22.556.026-5.638.014-2.82.117-2.808.516-11.239.998-21.494 24.298-3.582 12.651-1.864 6.324-.932 6.337-.845 25.349-3.374 6.303-.839 7.634.091 94.319 1.145 94.325 1.009 47.161.661 5.896.09c.959.022 2.023.027 3.05-.049a103.1 103.1 0 0 0 2.982-.243l2.541-.237.481.033c1.274.098 2.55.183 3.827.266l3.911.5 13.52 1.68c-.006.029-.03.028-.006.054ZM250.721 31.083l11.716-.955 6.996.805 25.326 3.06 25.32 3.168 21.004 2.723c-4.301-.307-8.6-.598-12.901-.924l-91.018-6.769 13.557-1.108ZM31.525 171.359l-.013-5.876.1-5.896.24-11.768c.073-3.914.158-7.828.331-11.732.454-13.389 1.298-26.737 3.153-39.927l-.183 18.625-.224 24.858c-.094 8.278-.083 16.558-.263 24.838l-.506 24.838c-.145 8.281-.424 16.561-.63 24.84l-.987 34.967-.476-18.893c-.176-7.855-.444-15.707-.547-23.557l.013-23.549-.008-11.768Zm196.224 238.206-12.276-.197c-2.048-.048-4.092-.129-6.14-.151l-6.14-.043-24.573-.419c-8.203-.144-16.414-.312-24.608-.302-8.2-.043-16.392.004-24.572.192-8.188.182-16.354.451-24.522.742-8.17.345-16.322.561-24.485.866-4.081.21-8.158.292-12.237.392-4.078.079-8.157.274-12.239.406-3.02.106-6.036.148-9.057.198-.12-1.659-.198-3.315-.46-4.979l-.261-2.173 24.785-.859c8.877-.226 17.711-.734 26.557-1.181l26.515-1.454c8.822-.588 17.667-.713 26.503-.998l13.255-.388c4.419-.091 8.842-.066 13.261-.105l13.263-.084 6.631-.056c2.21-.016 4.421.046 6.632.066l20.701.277 6.328.574c4.508.473 9.008 1.034 13.51 1.548 4.501.527 8.984 1.229 13.476 1.837 4.496.582 8.963 1.399 13.443 2.09 4.482.687 8.942 1.522 13.408 2.323l6.346 1.13c-7.421.419-14.849.818-22.274 1.223l-40.77-.475Zm187.443 3.528c-8.715-1.235-17.373-3.015-26.057-4.767-7.441-1.495-14.916-2.983-22.494-3.996 2.921-.499 5.839-1.018 8.694-1.712l5.624-1.248c1.894-.461 3.721-.86 5.609-1.252 3.751-.781 7.524-1.536 11.285-2.385 6.467-1.499 12.974-3.149 19.154-5.853l.222 6.396c.163 4.057.594 7.908.766 11.793.047 1.14.069 2.279.074 3.415-.96-.122-1.918-.25-2.877-.391Zm15.131-383.075.237.32.478.642c.3.427.673.856.916 1.283.417.876.931 1.632 1.302 2.588.352.96.813 1.863 1.08 2.866.979 3.038 1.647 6.212 2.127 9.43-3.962-.697-7.895-1.005-11.797-1.249l-6.023-.348c-1.91-.12-3.932-.354-5.952-.531l-1.406-.132-.139-.115a9.631 9.631 0 0 0-1.616-1.038c-2.207-1.123-4.377-1.511-6.48-1.785-2.104-.245-4.165-.305-6.199-.285-4.064.048-8.052.422-11.945.759l-.119.009-13.631-1.925-50.574-7.049-25.31-3.382-11.239-1.432 17.698-1.089 12.76-.785 12.771-.521 25.545-1.026 6.385-.268 6.39-.134 12.779-.247 25.559-.496c4.274-.043 8.502-.15 12.623.277 4.09.436 8.178 1.367 11.405 3.597.392.286.763.598 1.148.893.377.306.691.675 1.043 1.006l.129.127c.01.004.158.172.055.04ZM20.297 172.73c-.085-4.076-.257-8.152-.391-12.227l-1.012-24.359c-.279-8.132-.541-16.265-.71-24.397-.034-2.031-.113-4.071-.112-6.096l.06-6.079c.039-4.052.128-8.106.223-12.159l.302-12.159.229-12.221c.033-4.075.059-8.149.029-12.224a265.14 265.14 0 0 0-.065-6.113c-.102-2.043-.167-4.085-.303-6.127-.441-7.753-1.025-15.498-1.977-23.204 7.059-.334 14.121-.611 21.186-.874l-.031.862-.001.007-1.563 40.496c-.691 3.123-1.331 6.237-1.968 9.26l-2.651 11.463-.68 2.924c-.216.977-.362 1.965-.547 2.948l-1.053 5.903c-2.635 15.767-3.91 31.69-4.14 47.518-.199 15.85.595 31.55 1.676 47.306.502 7.87.961 15.732 1.353 23.592.466 7.855 1.028 15.704 1.387 23.559l1.016 23.567c.293 7.858.81 15.708 1.11 23.566l.055 1.314-.272 9.912c-.205 8.283-.484 16.562-.628 24.848l-.509 24.855c-.206 8.284-.192 16.575-.297 24.862-.066 8.239-.21 16.477-.084 24.722-1.049-6.577-1.891-13.193-2.63-19.823-1.885-17.259-2.976-34.609-4.34-51.969a538.049 538.049 0 0 0-1.182-13.028l-1.2-12.973-1.762-19.155.372-12.823c.491-16.265 1.002-32.511 1.12-48.811.075-8.145.199-16.291.19-24.436.061-4.071-.11-8.151-.2-12.227Zm393.996 256.397c-.181.135-.403.308-.445.283a.702.702 0 0 0-.129.064l-.263.09c-.165.069-.368.117-.568.165-1.64.385-3.585.437-5.508.457-.974.012-1.943-.001-3.008.042l-2.982.229-5.879.457c-1.405.062-2.802.088-4.2.117-.089-.037-.176-.076-.266-.112l-6.337-2.679c-2.128-.854-4.293-1.606-6.438-2.415-4.273-1.67-8.668-2.954-13.01-4.409-8.761-2.628-17.587-5.054-26.48-7.094-1.612-.378-3.212-.731-4.818-1.101l41.003 1.485c14.255.637 28.573 2.381 43.023 2.2-.076 1.548-.201 3.084-.438 4.585-.319 1.83-.791 3.606-1.524 5.189-.43.727-.826 1.498-1.401 2.055l-.197.23c-.014.022-.119.138-.135.162Zm27.358-85.461-.489 12.779c-.678 17.039-1.264 34.082-2.014 51.117l-.361 6.852c-4.331.222-8.685.144-13.035-.165a209.74 209.74 0 0 0 6.407-24.193c.974-4.356 1.717-8.665 2.511-12.991.719-4.406 1.309-8.888 1.823-13.319 1.796-17.69 2.326-35.262 3.142-52.729l.651-13.061c.078-2.198.247-4.308.41-6.423l.433-6.361c.079-2.097.446-4.313.67-6.484l.378-3.273.19-1.638.092-.816.025-.205.009-.066.06-.346c.549-3.022 1.025-6.049 1.572-9.079l-1.271 42.049-.803 25.568-.4 12.784Zm17.844-241.524c-.399-8.806-1.037-17.613-2.003-26.402-1.062-8.736-2.478-17.641-4.308-26.174-1.021-4.4-2.055-8.666-3.433-12.989-1.391-4.294-3.09-8.548-5.318-12.585-.519-1.021-1.214-2.019-1.816-3.029l-.941-1.505-.977-1.333-.98-1.324-.491-.661-.243-.331c-.022-.035-.227-.291-.212-.259l-.149-.16c-.803-.851-1.838-1.497-2.912-2.056-1.027-.605-2.237-.984-3.128-1.673-.467-.322-.871-.713-1.297-1.08-.419-.377-.912-.665-1.362-1.001-.937-.626-1.811-1.347-2.8-1.89l-2.959-1.628c-4.074-1.94-8.442-3.116-12.838-3.799-4.402-.705-8.847-.872-13.255-.843-8.842.018-17.562.67-26.341.561l-52.682-.469L213.685.755 161 .388c-8.779-.122-17.574.009-26.351.093l-26.351.254-52.685.641-13.171.172c-4.41.067-8.743.136-13.12-.036-4.381-.113-8.783-.321-13.226-.233-4.441.098-8.915.461-13.329 1.401l-.902.192-.062.899-.002.011C1.375 8.131.84 12.488.557 16.857l-.3 6.557c-.089 2.187-.24 4.378-.218 6.562-.134 8.75.086 17.495.515 26.213.436 8.715 1.02 17.423 1.686 26.085l.952 13.005.472 6.493.398 6.506 1.637 26.02c.566 8.672 1.172 17.338 1.653 26.027l1.524 26.05c.5 8.683 1.002 17.366 1.623 26.066l1.771 26.081.885 13.041.945 9.804-.204 45.625c-.021 4.075-.009 8.138-.087 12.184l-.276 12.189c-.202 8.132-.39 16.274-.448 24.42-.053 8.148.001 16.303.382 24.465.2 4.082.463 8.164.933 12.244l.364 3.061c.135 1.019.337 2.037.504 3.055.027.198-2.553 3.305-2.553 3.305l3.181-.149c.238.978.498 1.959.735 2.938l.23.951 1.071-.074h.002l11.814-.693c-.566 3.061-.951 6.22-.795 9.417l.055 1.146 1.139.033h.001l3.665.093c.529 1.39 1.076 2.773 1.601 4.159l.29.764.827-.005h.013c15.727.347 31.46.515 47.195.778l47.166-.096c15.716.009 31.433-.041 47.142.084 7.858-.013 15.71.138 23.565.217 3.927.057 7.855.063 11.779.181 3.926.072 7.847.3 11.783.022 3.936-.224 7.886-.774 11.816-.733 3.929.062 7.852.312 11.779.459l11.776.524 11.764.766 11.761.784c3.917.3 7.823.715 11.734 1.068l11.731 1.099c3.909.357 7.805.909 11.709 1.354 15.633 1.713 31.12 4.289 46.841 5.764 1.96.217 3.928.361 5.898.478l5.91.385 5.926.177c.989.024 1.975.072 2.967.075l.841-.012 1.829.745c2.107.812 4.12 1.766 6.141 2.709 2.022.963 4.064 1.826 6.072 2.869l6.017 3.217 1.508.801.691.373.683.416c.91.552 1.821 1.175 2.724 1.824 3.618 2.602 7.228 5.452 11.098 8.016 1.948 1.272 3.961 2.485 6.14 3.484 2.17.975 4.592 1.739 7.203 1.632l.005.001 1.143.044.06-1.208 2.058-42.008c.205-.019.41-.031.615-.052l1.09-.116.04-1.071v-.005c1.215-16.083 2.397-32.164 3.476-48.25l3.327-48.256 3.361-48.268.802-12.081.526-12.107.527-12.106c.167-4.035.385-8.07.433-12.106l.442-20.704.066-.535c.257-2.207.541-4.306.778-6.6.384-4.397.835-8.784 1.17-13.179a751.345 751.345 0 0 0 1.618-26.382c.231-4.397.313-8.799.49-13.197l.125-6.602c.045-2.2.073-4.401.048-6.603.145-8.806-.143-17.612-.438-26.422Z" style="fill:#d7cabd;fill-rule:nonzero" transform="matrix(2.60886 0 0 1.08776 0 64.632)"/></svg>